<svg version="1.1" id="profile-silhouette" xmlns="http://www.w3.org/2000/svg" x="0" y="0" viewBox="0 0 1000 1000" style="enable-background:new 0 0 1000 1000" xml:space="preserve"><style>.st2{fill:#366}</style><circle cx="498" cy="498" r="498" style="fill:#fff"/><path id="profile-silhouette-path" d="M475.2 36.4c-8.1 2.2-17.1 4.1-19.8 4.9-11.1 2.4-15.5 4.6-15.5 7.1 0 1.4 1.4 2.4 3.3 2.4 1.6 0-.3 3.5-4.6 8.1-4.3 4.3-9.5 8.1-11.4 8.1s-3.5 1.1-3.5 2.4c0 3.3-37.2 41-40.5 41-1.4 0-6.8 8.7-12.2 19l-9.5 19 1.1 32c.5 19.3 2.7 36.4 5.2 43.7 6.2 16.8 5.7 29.3-1.1 31.5-6.5 2.2-6.8 9.2-1.4 27.4 2.2 7.3 4.1 16.8 4.1 20.9s1.9 11.1 4.1 15.5c2.2 4.1 4.6 13.6 5.2 20.9.8 7.1 3.8 20.9 7.1 30.4 7.9 24.7 7.6 25.3-7.3 24.4-21.4-1.1-40.7 3-48.6 10.3-7.6 7.1-7.6 9.8-.5 44 3 13.6 2.7 14.7-2.7 19-4.9 3.5-5.7 6.2-4.3 13 1.6 7.6.8 9-8.1 13-11.7 5.7-13.6 8.1-13.8 19 0 4.3-1.1 8.1-2.7 8.1-1.4.3-19.3 8.4-39.6 18.2-23.3 11.7-41.8 22.5-50.8 30.7-16.3 14.7-35.8 39.4-41 52.4-1.9 4.6-4.6 8.7-5.4 8.7-1.9 0-7.3 9.2-21.4 36.7-3.8 7.3-8.7 15.7-11.1 18.7-2.4 2.7-3.8 5.2-3.3 5.4.5 0-1.4 8.4-4.6 18.2-3.3 9.8-6.5 23.3-7.6 29.9s-3.5 14.4-5.2 17.4c-1.9 3-4.3 11.9-5.2 19.8-1.1 7.9-2.4 16-3.3 18.2-1.1 3-.5 3.5 2.4 2.4 5.2-1.9 8.7-12.2 27.4-77.9 11.7-40.7 53.5-111 82.5-138.5 13-12.2 24.2-19.3 52.7-32.9 33.9-16 48.3-26.3 48.3-35.3 0-1.6 4.9-7.6 10.9-13.3 6-5.4 10.9-12.5 10.9-15.7 0-3 1.9-9.2 4.3-13.8 3.8-7.3 4.1-10.9 1.4-22-4.1-18.2-3.8-33.1.8-37.2 2.2-1.6 14.7-4.1 27.7-4.9 20.9-1.6 24.2-2.7 28.5-8.7 4.9-6.5 4.9-7.3-.3-27.2-9.5-37.2-13.8-55.7-16.3-69.2-1.4-7.6-3.8-18.2-5.4-23.9-2.4-8.7-2.4-11.7 1.4-17.4 4.9-7.3 4.9-17.1-1.4-63.3-3.8-30.1-2.4-47 5.2-61.9 6.2-11.9 75.5-81.7 85.3-85.8 3.3-1.4 17.1-2.4 30.4-2.7 20.9-.3 25.8.5 33.9 5.7 5.2 3.5 13 8.4 17.4 10.9 17.1 10.6 39.6 31.2 52.7 48.6 20.9 28 23.6 39.1 23.9 100.2.3 28.2.5 59.5.5 69.2.3 9.8-1.1 22.5-2.4 28.5-1.6 6-4.3 21.7-6.2 35.3-2.2 13.3-4.6 27.4-5.4 31.2-3.3 11.4 6.8 21.7 21.2 21.7 6.2 0 12.8 1.4 14.7 3.3 1.9 1.9 3.3 11.7 3.3 24.2 0 11.7 1.1 23.9 2.4 27.4 1.4 3.5 14.1 17.1 28.5 30.1 25 23.1 26.6 24.2 45.3 28 25 5.2 66.5 25 77.4 36.7 15.2 16.3 43.4 61.1 50 78.7 3.5 9.5 10.3 24.2 15.5 32.6 4.9 8.4 9 16.8 9 18.2 0 1.6 3 11.9 6.5 22.8s9 31.5 12.2 45.9c4.1 17.6 7.9 28 11.7 31.2 5.4 5.2 5.4 5.2 3.5-3.8-1.1-5.2-3-15.5-4.3-23.1-3.3-19.8-9.2-44.5-14.4-58.6-2.4-6.5-4.3-14.1-4.3-17.1s-3-9-6.8-13.6c-3.8-4.3-6.8-9.5-6.8-11.7 0-1.9-1.9-4.9-4.1-6.8s-4.1-4.9-3.8-6.5c1.1-7.3-18.2-46.7-28.5-58.6-3.3-3.8-10.9-14.1-16.6-22.8-9.2-13.6-29.6-32.3-36.1-33.1-1.1 0-9.8-3.8-19.5-8.4-9.8-4.6-25-9.8-33.9-11.7-23.9-4.9-31.2-8.1-31.2-13.8 0-2.7-3.3-7.1-7.3-9.8-4.3-2.4-11.4-7.9-16.3-11.9-4.6-4.1-10-7.9-12.2-8.4-2.7-1.1-3.8-9-4.1-30.7-.8-36.9-3.5-40.7-26.9-40.2-15.2.5-15.2.3-13.3-6.8 1.1-4.1 2.4-11.7 3-16.8 3.8-27.2 6.2-43.2 9-52.9 1.4-6 3.3-18.2 4.1-26.6.8-8.7 2.2-16.8 3-18.2s-1.1-4.1-4.3-6.2c-5.4-4.1-5.4-4.6-1.9-39.1 2.2-21.4 3-39.4 1.4-47-1.1-6.8-2.7-15.7-3.3-20.1-1.6-11.9-6.8-23.1-17.9-39.9-13-19.5-49.7-55.4-57-55.7-3.3-.3-8.7-4.1-12.2-8.7-4.3-5.2-10-8.7-16.6-10-5.7-1.1-11.4-2.7-13-3.5-5.8-2.8-24.8-2-40.3 1.5z" style="fill:#c3423f"/><path class="st2" d="M266 759c.7 2.1 1.1 3.7 1.3 4.9.2 1.2-.1 2.1-.7 2.7-.6.6-1.8 1-3.4 1.1-1.6.1-3.8.2-6.7.2-2.9 0-5.2 0-6.9-.1-1.6-.1-2.9-.3-3.8-.5-.9-.3-1.5-.6-1.8-1.1-.3-.5-.6-1.1-.9-1.8l-7.5-22.6h-42.2l-7.1 21.9c-.2.8-.5 1.5-.9 2s-1 1-1.8 1.3c-.8.3-2 .5-3.6.7-1.5.1-3.5.2-6 .2-2.7 0-4.7-.1-6.2-.3-1.5-.2-2.5-.6-3.1-1.3-.6-.7-.8-1.6-.6-2.8s.6-2.8 1.3-4.9L200 659c.3-1 .8-1.8 1.2-2.4.5-.6 1.2-1.1 2.2-1.4 1-.3 2.4-.5 4.2-.6 1.8-.1 4.2-.1 7.1-.1 3.4 0 6.1 0 8.2.1 2 .1 3.6.3 4.7.6s1.9.8 2.4 1.4c.5.6.9 1.5 1.3 2.6L266 759zm-51.5-82.3-16 47.7h31.8l-15.8-47.7zM358.3 724.8c0 6.9-.7 13.1-2.2 18.6-1.5 5.5-3.6 10.2-6.5 14.1-2.8 3.9-6.4 6.9-10.6 8.9-4.2 2.1-9.1 3.1-14.5 3.1-2.3 0-4.3-.2-6.2-.7-1.9-.4-3.7-1.1-5.5-2-1.8-.9-3.5-2-5.2-3.3-1.7-1.3-3.5-2.9-5.4-4.7v36.4c0 .6-.2 1.1-.5 1.6s-.9.9-1.8 1.2c-.8.3-2 .6-3.3.7-1.4.2-3.2.3-5.3.3-2.1 0-3.9-.1-5.3-.3-1.4-.2-2.5-.4-3.3-.7-.8-.3-1.4-.7-1.8-1.2-.3-.5-.5-1-.5-1.6v-108c0-.6.1-1.1.4-1.5.3-.4.8-.8 1.5-1.1.7-.3 1.7-.5 2.9-.7 1.2-.1 2.7-.2 4.5-.2 1.7 0 3.2.1 4.4.2 1.2.1 2.1.4 2.9.7.7.3 1.2.7 1.5 1.1.3.4.4.9.4 1.5v9.1c2.3-2.3 4.5-4.4 6.6-6.1 2.2-1.8 4.4-3.2 6.6-4.4s4.6-2.1 7-2.6c2.4-.6 5-.9 7.7-.9 5.7 0 10.5 1.1 14.5 3.3 4 2.2 7.2 5.3 9.8 9.2 2.5 3.9 4.3 8.4 5.5 13.5 1.1 5.2 1.7 10.6 1.7 16.5zm-22.7 1.5c0-3.3-.2-6.5-.7-9.5-.5-3-1.3-5.7-2.5-8.1-1.2-2.4-2.7-4.3-4.7-5.7-1.9-1.4-4.4-2.1-7.2-2.1-1.4 0-2.9.2-4.3.7-1.4.4-2.9 1.1-4.3 2.1-1.5 1-3 2.3-4.6 3.8-1.6 1.6-3.2 3.5-4.9 5.8v25.5c3.1 3.9 6 6.9 8.8 9 2.8 2.1 5.7 3.2 8.7 3.2 2.8 0 5.2-.7 7.2-2.2 2-1.4 3.6-3.3 4.9-5.7 1.3-2.3 2.2-5 2.8-7.9s.8-5.9.8-8.9zM454 725.1c0 6.6-.9 12.6-2.6 18-1.7 5.4-4.4 10.1-7.9 14.1-3.5 3.9-8 7-13.3 9.1-5.3 2.1-11.5 3.2-18.6 3.2-6.9 0-12.9-1-18-2.9s-9.3-4.7-12.7-8.3c-3.4-3.6-5.8-8.1-7.5-13.4-1.6-5.3-2.4-11.4-2.4-18.2 0-6.6.9-12.6 2.6-18.1 1.8-5.5 4.4-10.1 7.9-14.1 3.5-3.9 7.9-6.9 13.2-9.1 5.3-2.1 11.5-3.2 18.6-3.2 6.9 0 13 .9 18 2.8 5.1 1.9 9.3 4.6 12.6 8.3 3.3 3.6 5.8 8.1 7.4 13.4 1.9 5.4 2.7 11.6 2.7 18.4zm-22.5.9c0-3.8-.3-7.3-.9-10.5s-1.6-6-3.1-8.4c-1.4-2.4-3.4-4.2-5.8-5.6-2.4-1.3-5.4-2-9.1-2-3.2 0-6.1.6-8.5 1.8-2.4 1.2-4.4 2.9-6 5.2-1.6 2.3-2.7 5-3.5 8.2-.8 3.2-1.2 6.9-1.2 11 0 3.8.3 7.3 1 10.5.6 3.2 1.7 6 3.1 8.4 1.4 2.4 3.3 4.2 5.8 5.5s5.4 2 9 2c3.3 0 6.2-.6 8.6-1.8s4.4-2.9 6-5.2c1.6-2.3 2.7-5 3.5-8.2.8-3.1 1.1-6.8 1.1-10.9zM562.6 672.7c0 1.7-.1 3.1-.2 4.3-.1 1.2-.3 2.2-.6 2.9-.3.7-.6 1.2-1 1.5s-.8.4-1.3.4c-.8 0-2-.5-3.6-1.6-1.7-1-3.9-2.2-6.7-3.4-2.8-1.2-6.1-2.3-9.9-3.4-3.8-1-8.3-1.6-13.4-1.6-5.4 0-10.4.9-14.7 2.8s-8.2 4.5-11.3 8c-3.1 3.4-5.5 7.6-7.2 12.4-1.7 4.8-2.5 10.2-2.5 16 0 6.4.9 12.1 2.6 17 1.7 4.9 4.1 9 7.2 12.3 3.1 3.3 6.7 5.8 11.1 7.5 4.3 1.7 9.1 2.5 14.3 2.5 2.5 0 5.1-.3 7.5-.9s4.8-1.4 6.9-2.6v-26h-21.3c-1 0-1.9-.7-2.4-2s-.9-3.5-.9-6.6c0-1.6.1-3 .2-4.1.1-1.1.4-2 .7-2.6.3-.7.6-1.2 1-1.5s.9-.5 1.4-.5h37.9c.9 0 1.7.2 2.5.5s1.4.8 1.9 1.4 1 1.4 1.3 2.3.4 1.9.4 3.1v44.7c0 1.7-.3 3.3-.9 4.6s-1.9 2.3-3.7 3.1c-1.9.8-4.2 1.5-7 2.3s-5.7 1.5-8.6 2.1c-3 .6-6 1-9 1.3-3 .3-6.1.4-9.2.4-9 0-17-1.3-24.1-3.9-7.1-2.6-13.1-6.3-18-11.2-4.9-4.9-8.7-10.8-11.3-17.9-2.6-7-3.9-15-3.9-23.9 0-9.2 1.4-17.4 4.2-24.8 2.8-7.3 6.7-13.5 11.8-18.6 5.1-5.1 11.2-9 18.4-11.8 7.2-2.7 15.2-4.1 24.1-4.1 4.9 0 9.3.3 13.3 1s7.5 1.5 10.5 2.4c3 1 5.5 2 7.4 3.1s3.3 2.1 4.1 2.9c.8.8 1.3 2 1.7 3.4.1 1.8.3 4 .3 6.8zM662.7 725.1c0 6.6-.9 12.6-2.6 18-1.7 5.4-4.4 10.1-7.9 14.1-3.5 3.9-8 7-13.3 9.1-5.3 2.1-11.5 3.2-18.6 3.2-6.9 0-12.9-1-18-2.9s-9.3-4.7-12.7-8.3c-3.4-3.6-5.8-8.1-7.5-13.4-1.6-5.3-2.4-11.4-2.4-18.2 0-6.6.9-12.6 2.6-18.1 1.8-5.5 4.4-10.1 7.9-14.1 3.5-3.9 7.9-6.9 13.2-9.1 5.3-2.1 11.5-3.2 18.6-3.2 6.9 0 13 .9 18 2.8s9.3 4.6 12.6 8.3c3.3 3.6 5.8 8.1 7.4 13.4 1.9 5.4 2.7 11.6 2.7 18.4zm-22.5.9c0-3.8-.3-7.3-.9-10.5s-1.6-6-3.1-8.4c-1.4-2.4-3.4-4.2-5.8-5.6s-5.4-2-9.1-2c-3.2 0-6.1.6-8.5 1.8-2.4 1.2-4.4 2.9-6 5.2-1.6 2.3-2.7 5-3.5 8.2-.8 3.2-1.2 6.9-1.2 11 0 3.8.3 7.3 1 10.5.6 3.2 1.7 6 3.1 8.4s3.3 4.2 5.8 5.5c2.4 1.3 5.4 2 9 2 3.3 0 6.2-.6 8.6-1.8s4.4-2.9 6-5.2c1.6-2.3 2.7-5 3.5-8.2.7-3.1 1.1-6.8 1.1-10.9zM753.3 764.6c0 .6-.1 1.1-.4 1.5-.3.4-.8.8-1.5 1.1-.7.3-1.7.5-2.9.7a51.626 51.626 0 0 1-9.1 0c-1.2-.1-2.1-.4-2.8-.7-.7-.3-1.2-.7-1.5-1.1-.3-.4-.4-.9-.4-1.5v-8.9c-4.3 4.6-8.6 8.1-13.1 10.4-4.4 2.3-9 3.5-13.7 3.5-5.3 0-9.8-.9-13.4-2.6s-6.5-4.1-8.8-7.1c-2.2-3-3.8-6.5-4.8-10.5s-1.4-8.9-1.4-14.8v-47.4c0-.6.2-1.1.5-1.5.3-.4.9-.8 1.7-1.1s2-.5 3.4-.7c1.4-.1 3.2-.2 5.2-.2 2.1 0 3.9.1 5.3.2s2.5.4 3.3.7c.8.3 1.4.7 1.8 1.1.3.4.5.9.5 1.5v43.7c0 4 .3 7.1.8 9.3.5 2.1 1.3 4 2.4 5.5 1.1 1.5 2.4 2.7 4.1 3.6 1.6.8 3.6 1.3 5.8 1.3 2.8 0 5.6-1 8.4-3 2.8-2 5.8-5 9-8.8v-51.4c0-.6.2-1.1.5-1.5.3-.4.9-.8 1.7-1.1.8-.3 2-.5 3.3-.7 1.4-.1 3.2-.2 5.3-.2 2.1 0 3.9.1 5.3.2s2.5.4 3.3.7c.8.3 1.4.7 1.7 1.1.3.4.5.9.5 1.5v77.2zM846.5 687.1v1c0 .4-.1.9-.2 1.3-.1.5-.2 1.1-.3 1.7-.1.6-.3 1.4-.6 2.2l-23.2 70c-.3 1-.7 1.8-1.2 2.4s-1.3 1.1-2.4 1.4c-1.1.3-2.7.6-4.6.7-1.9.1-4.5.2-7.6.2-3.1 0-5.6-.1-7.5-.2-1.9-.1-3.5-.4-4.6-.7-1.1-.3-1.9-.8-2.4-1.4s-.9-1.4-1.2-2.3l-23.2-70c-.3-1.2-.6-2.2-.8-3.1s-.3-1.6-.3-2v-1.1c0-.6.2-1.1.5-1.5.3-.4.9-.8 1.7-1.1s1.9-.5 3.3-.6 3.2-.2 5.3-.2c2.4 0 4.3.1 5.7.2 1.4.1 2.6.3 3.4.6.8.3 1.4.6 1.8 1.1.3.5.6 1.1.9 1.8l17.6 56.8.5 2.2.5-2.2 17.3-56.8c.2-.7.4-1.3.8-1.8s1-.9 1.8-1.1c.8-.3 1.9-.5 3.3-.6 1.4-.1 3.1-.2 5.3-.2 2.1 0 3.9.1 5.2.2s2.4.3 3.2.6c.8.3 1.3.7 1.6 1.1.2.4.4.9.4 1.4z"/></svg>